PathFileType	4	(X/Y/Z)	C:\Users\WrightLab\Desktop\Jo\P2_Trial20.trc
DataRate	CameraRate	NumFrames	NumMarkers	Units	OrigDataRate	OrigDataStartFrame	OrigNumFrames
100.00	100.00	       18	19	mm	100.00	394	       787
Frame#	Time	Headset_Front			Headset_Back			Headset_Left			Headset_Right			Left_Shoulder			Right_Shoulder			Sternum			C7			Left Elbow			Right Elbow			Left Wrist			Right Wrist			Left ASIS			Right ASIS			S2			Left Knee			Right Knee			Left Ankle			Right Ankle			
		X1	Y1	Z1	X2	Y2	Z2	X3	Y3	Z3	X4	Y4	Z4	X5	Y5	Z5	X6	Y6	Z6	X7	Y7	Z7	X8	Y8	Z8	X9	Y9	Z9	X10	Y10	Z10	X11	Y11	Z11	X12	Y12	Z12	X13	Y13	Z13	X14	Y14	Z14	X15	Y15	Z15	X16	Y16	Z16	X17	Y17	Z17	X18	Y18	Z18	X19	Y19	Z19	

394	3.930	-153.75041	1428.62390	301.90164	-140.82553	1681.96240	478.55939	-256.39667	1563.86304	427.39822	-43.82462	1520.62781	352.60388	-236.49707	1473.73804	647.08881	-12.02897	1414.00842	417.10413	-174.35643	1322.11719	508.62445	-31.79597	1446.08032	598.11877	-402.91321	1286.89551	707.64337	99.60258	1118.95459	348.67346	-295.19766	1218.68469	788.02405	1.28814	1022.81158	175.81912	-229.78947	1039.50659	560.12585	-137.49989	1015.80505	466.42285	-4.44640	958.34692	702.64172	-170.64384	465.13480	763.18005	-44.72029	542.51971	437.23419	-96.35896	110.61547	771.34399	-175.13907	172.83394	266.51425	
395	3.940	-156.43413	1427.62695	294.34824	-141.79961	1680.56726	470.76031	-257.88165	1563.33435	420.64377	-45.98875	1519.25684	345.63937	-237.61276	1475.17896	642.19781	-14.18881	1411.52905	410.80667	-176.38017	1321.61877	502.69528	-32.35765	1445.06189	591.19763	-403.97079	1289.33838	704.74933	96.00462	1116.64258	338.88495	-295.94122	1221.92505	785.20557	-2.85211	1017.56580	166.44072	-233.66193	1039.35474	556.21393	-141.77527	1014.59277	463.36182	-8.25142	957.92493	698.01337	-173.97749	463.97748	759.27869	-50.36860	541.26166	430.20105	-97.96090	110.73053	769.95294	-181.15085	166.87610	271.05197	
396	3.950	-158.96533	1426.69287	288.22986	-142.76982	1680.05957	463.27823	-259.74307	1562.83936	414.24091	-48.61007	1518.46631	337.06970	-238.91132	1476.92334	635.02222	-16.03415	1409.15283	403.22141	-178.55623	1321.27979	496.45798	-34.06252	1444.83350	583.46716	-405.20596	1291.25220	701.56848	91.49411	1114.48254	329.93988	-297.15155	1225.96570	782.83148	-7.65951	1012.47998	157.06212	-237.62785	1039.62463	552.97339	-146.14981	1013.55316	459.29865	-11.16487	958.20331	693.34656	-177.75641	463.67786	755.14948	-55.72305	541.16089	423.49692	-99.92378	111.14750	768.72284	-185.28940	159.05386	274.15717	
397	3.960	-161.73656	1425.76062	279.97934	-143.15741	1679.08411	455.43250	-261.07498	1561.97693	407.69180	-50.45885	1516.84338	330.09116	-240.30222	1477.83911	627.82367	-18.49955	1406.97644	395.59708	-181.02116	1320.80481	490.14157	-34.55799	1445.19409	576.05646	-406.66364	1294.00281	698.86096	86.95477	1112.48425	321.24844	-298.41891	1230.45923	780.45062	-11.51398	1007.20392	147.85391	-241.52144	1039.42065	549.24359	-150.14282	1013.74573	455.61569	-14.74038	959.03790	688.51233	-181.76248	463.85901	750.94000	-60.18877	542.87506	416.22577	-101.69068	111.78763	767.63477	-190.80405	153.83347	279.14816	
398	3.970	-164.84315	1425.09314	272.38318	-144.38246	1678.31787	448.19846	-262.23395	1561.60559	400.95612	-52.59538	1515.36951	322.69388	-239.71141	1478.96204	620.32086	-20.42307	1405.96875	388.07095	-183.46898	1321.00391	484.15460	-36.53182	1444.81128	568.58105	-408.56873	1297.43225	695.85016	83.12061	1110.96167	312.02588	-299.84882	1235.99280	777.89880	-15.49681	1003.12286	138.40814	-245.32196	1040.28101	545.86975	-154.30646	1013.36859	451.72513	-17.83824	959.67151	683.92163	-186.17921	463.34100	746.40491	-64.74612	544.94647	410.12341	-103.90150	112.63688	766.82391	-192.02412	150.30365	284.61694	
399	3.980	-167.66525	1424.21985	265.78668	-145.30861	1677.19263	440.92929	-263.64175	1561.03577	394.33966	-54.90110	1514.42712	313.24997	-241.31029	1480.78247	612.63715	-22.53754	1404.28711	382.45364	-186.04826	1320.58813	477.95535	-37.79569	1444.09839	561.66998	-409.10635	1299.96655	691.84930	78.56487	1109.56616	302.33981	-300.60306	1241.00854	775.41595	-20.26363	998.45337	129.42709	-248.89250	1040.95288	542.32300	-157.99518	1014.07849	448.69205	-20.97087	960.59869	679.89172	-190.41203	463.50211	741.31067	-68.31173	547.91711	403.26190	-106.76073	113.67814	765.92578	-194.21472	147.23209	290.51041	
400	3.990	-170.21010	1423.14844	259.46432	-146.22433	1676.60120	433.41156	-265.07056	1560.17517	388.03625	-56.95594	1513.47168	303.87192	-242.81067	1482.67993	605.14496	-24.75079	1402.54578	376.84714	-188.33957	1320.63855	472.57886	-39.40396	1444.58618	555.69690	-410.49680	1302.41797	688.53918	74.34400	1108.44385	293.25311	-302.22925	1246.47900	773.14172	-24.60750	993.85565	120.56037	-252.20633	1041.58228	538.52698	-161.41769	1015.65686	444.48630	-23.92540	961.39618	675.73474	-195.30748	463.94525	736.42981	-71.45588	551.27002	396.33316	-109.08607	114.75323	764.48865	-196.10968	143.18770	296.75238	
401	4.000	-173.12505	1422.12085	251.94685	-146.88652	1676.14380	426.07355	-267.04584	1560.08252	382.03699	-59.60284	1512.37097	295.76440	-244.91556	1483.78870	596.08130	-27.37146	1401.21008	371.10217	-191.16774	1320.96204	466.75278	-41.12148	1443.98645	548.47839	-412.35770	1306.05127	685.58362	70.57627	1108.15063	283.09903	-303.43121	1252.09814	770.70898	-28.58223	989.31964	111.51270	-255.66183	1042.25757	535.46027	-164.81551	1016.57037	440.57855	-26.60657	962.33563	671.95013	-200.43527	464.33481	730.86292	-74.93403	553.84711	389.99109	-111.65053	115.44125	763.45795	-197.09193	140.30275	303.44785	
402	4.010	-176.13977	1421.43213	244.81773	-147.23956	1674.67883	418.79880	-268.46152	1559.52441	375.56192	-61.64344	1511.11267	288.25305	-245.91821	1485.11487	589.98230	-29.62810	1400.16992	363.86868	-193.70102	1320.77942	461.07190	-43.43013	1443.90784	542.43146	-414.24661	1308.63757	682.74237	65.10964	1106.93579	275.07257	-303.81421	1257.02307	768.32263	-33.06872	984.94562	103.49035	-258.59717	1042.97766	532.35095	-167.46849	1018.10284	436.95035	-29.60315	962.81201	668.30798	-205.04503	465.01978	724.91034	-77.87151	555.95789	382.96271	-114.70280	116.96391	762.35895	-197.57181	138.22388	310.60144	
403	4.020	-178.43814	1420.42700	238.98880	-148.74686	1673.93420	412.08282	-270.20856	1558.93237	369.14450	-63.93874	1509.99365	281.01328	-248.91191	1486.00610	581.31494	-31.78653	1399.25354	358.30963	-196.72618	1320.83374	455.39520	-44.98718	1444.11658	535.31976	-416.50705	1312.08044	680.85162	60.75777	1107.24512	265.13519	-304.80862	1261.91174	766.24701	-37.68868	979.47028	95.51958	-260.97110	1043.61890	528.63306	-170.24603	1018.91370	433.03601	-31.22518	963.40369	664.61163	-211.48163	465.62607	719.34406	-81.57586	557.29248	376.53867	-117.65529	117.79030	760.70050	-197.97099	137.43837	316.28683	
404	4.030	-180.92308	1419.13098	232.79889	-149.60570	1673.32471	405.26437	-271.90552	1558.90356	362.55698	-65.71804	1508.38135	274.08322	-249.73836	1487.20996	576.64679	-34.16161	1398.02722	352.35449	-199.17317	1320.81042	450.06122	-47.92453	1443.25098	529.34106	-418.63168	1314.68933	678.84064	56.43351	1106.65234	256.17581	-305.56482	1266.15125	764.00903	-41.45281	976.59186	89.71297	-263.06250	1044.32068	525.44910	-172.69447	1019.77844	428.63202	-33.39967	963.99542	660.39349	-216.98695	466.41318	712.47693	-84.95397	558.55560	369.20749	-121.27747	119.72320	760.12720	-197.26717	135.48300	323.55069	
405	4.040	-183.26973	1418.04785	226.96194	-150.94075	1672.42078	398.64688	-272.69864	1557.83521	355.98511	-67.58118	1506.48193	269.00674	-252.03831	1488.28210	570.38556	-36.96863	1396.53906	346.77655	-201.65559	1320.44092	445.06580	-49.52394	1442.83936	522.84753	-420.65460	1318.00745	676.54688	51.84235	1106.44653	248.93080	-306.76791	1270.88000	761.73291	-45.29155	972.62488	81.81579	-264.81876	1044.55444	521.87671	-174.85820	1019.64923	425.60370	-34.05233	964.69421	655.40656	-222.58714	466.67786	705.28931	-87.89903	558.66138	362.31812	-125.06421	121.17995	758.66705	-198.52142	136.29176	330.92252	
406	4.050	-185.66231	1417.33057	220.55951	-152.79730	1671.78040	392.62122	-275.23508	1557.86646	349.58621	-69.70728	1504.99536	263.73285	-254.44223	1488.51025	562.79523	-39.64719	1395.53516	341.69263	-204.90627	1320.39319	439.74811	-51.40859	1443.08826	517.49329	-422.67996	1321.11511	673.61505	46.99363	1105.56738	240.97661	-307.03406	1274.81799	759.32245	-48.68349	969.05444	75.10699	-266.61697	1044.78760	518.68317	-177.28238	1019.45123	420.60284	-35.81453	965.41400	651.26819	-228.10573	465.91302	698.33459	-90.11639	558.87958	357.00790	-128.72531	122.07841	757.00867	-198.23741	134.53755	336.73999	
407	4.060	-187.97119	1416.49121	214.19809	-154.26938	1670.29016	386.39633	-277.68533	1557.63379	343.25916	-71.84868	1503.88513	256.57410	-255.35184	1489.09619	558.96149	-43.17098	1394.18396	335.70145	-208.06602	1319.92468	435.29489	-53.60797	1442.57239	510.34131	-424.30075	1324.10327	671.14545	42.21059	1105.18384	234.53659	-307.83875	1278.33081	756.80493	-51.70275	966.45203	68.68839	-268.22211	1044.47607	515.15942	-179.37160	1018.21521	418.93109	-36.42854	966.18396	646.52051	-234.05423	465.22861	691.50085	-92.83476	558.89178	351.81238	-133.12431	123.32762	755.83740	-198.75424	132.96237	342.81903	
408	4.070	-190.24480	1415.82373	207.60661	-155.73882	1669.47034	380.22446	-279.56583	1557.36182	336.73276	-74.12528	1502.91248	249.86406	-257.00089	1489.37769	553.80676	-46.28699	1393.35583	330.65848	-210.49818	1319.60059	430.43661	-55.78194	1442.97253	504.58298	-425.65335	1326.44678	668.97125	37.14639	1104.99829	228.95987	-309.55081	1281.63696	754.37299	-55.52313	962.59631	62.01206	-269.97256	1044.30432	512.41827	-181.43411	1017.94739	414.62668	-37.26582	966.11786	642.02209	-240.43970	464.73294	685.39063	-93.37717	558.23444	347.96515	-138.09236	125.04496	754.88934	-199.70416	132.64351	346.68842	
409	4.080	-192.12517	1414.52380	202.29062	-158.14557	1668.97583	374.45557	-281.75357	1557.01477	330.68604	-75.72596	1501.80444	244.85106	-258.72806	1489.66895	548.68439	-48.97375	1392.07581	325.10254	-214.04375	1319.52747	425.79959	-57.91463	1441.87537	499.08759	-426.95169	1328.90967	666.05933	32.56747	1104.35742	222.11821	-310.52777	1284.19629	751.71637	-58.20274	958.82104	56.28088	-271.81180	1043.43909	509.31992	-183.59561	1016.59326	411.50177	-38.28982	966.07867	637.72113	-247.41420	464.01868	678.95276	-94.28121	557.76276	346.91089	-143.19252	126.35652	753.71515	-199.98679	131.49754	351.74854	
410	4.090	-194.65240	1414.06384	195.93626	-160.10431	1668.10425	368.57578	-283.80685	1556.15942	324.55820				-261.20892	1490.45984	543.63568	-52.85524	1391.30786	318.70071	-216.89650	1318.93945	421.33139	-58.59203	1444.18433	494.61655	-428.63617	1330.97156	663.36145	28.69039	1104.04932	217.29999	-311.36526	1286.39709	748.56342	-61.59504	955.94232	51.07140	-273.38019	1042.75000	506.04941	-185.43851	1015.60083	409.40836	-38.70558	966.33185	634.52899	-254.31477	463.73575	673.79602	-96.69405	556.87677	345.45981	-146.87135	127.97871	751.12817	-201.46452	132.10228	353.80923	
411	4.100	-196.39355	1413.25427	190.92418	-162.53305	1667.47742	363.14395	-285.91040	1555.54712	318.60410				-262.29730	1490.30823	539.02368	-55.30191	1390.39954	314.27487	-219.70879	1318.24866	417.60712	-60.76624	1443.72693	489.17542	-430.70251	1333.09351	660.31500	23.98407	1103.88501	211.58305	-312.53555	1288.36670	745.25909	-63.75706	953.32397	45.96095	-275.16907	1042.40723	503.37506	-187.43661	1015.16711	405.40012	-39.76034	967.18201	630.73236	-261.41437	464.02301	668.16925	-97.53967	555.53827	345.96075	-151.70065	128.92438	748.81433	-201.70633	132.05963	354.81406	
